<svg xmlns="http://www.w3.org/2000/svg" version="1.1" width="32" height="32" viewBox="0 0 32 32">
	<path
		d="M17.9,27.8c.1-.2.3-.4.3-.6,0-.3,0-.7,0-1v-5.7c-1.5,0-3,0-4.6,0v5.2c0,.5,0,1,0,1.5,0,.2.1.4.3.6h0c-.6.8-1.2,1.6-1.9,2.5-.6-.8-1.2-1.6-1.9-2.4.4-.7.3-1.5.3-2.3,0-1.3,0-2.7,0-4v-1h-4.4s0,0,0,0c0,0,0,0,0,0,0,2.1,0,4.2,0,6.5l.4.6c-.6.8-1.2,1.6-1.9,2.5-.6-.8-1.2-1.6-1.8-2.4.4-.7.3-1.5.3-2.2,0-6.1,0-12.2,0-18.3,0-.4,0-.9-.2-1.3-.3-1-1.1-1.3-2-1.6-.3,0-.5-.2-.8-.2V1.7h32v2.4c-.2,0-.4.2-.6.3-.4.2-.9.3-1.3.5-.7.4-1.1,1-1,1.8,0,.3,0,.5,0,.8,0,6.1,0,12.2,0,18.2,0,.4,0,.9,0,1.3,0,.3,0,.7.3,1h0c-.5.6-1.2,1.4-1.8,2.3-.6-.8-1.2-1.5-1.9-2.3.1-.2.2-.5.3-.7h0c0-.4,0-.8,0-1.2v-5.5c-1.5,0-3,0-4.5,0v1c0,1.6,0,3.1,0,4.7,0,.3,0,.6,0,.9,0,.3.1.5.2.8-.5.7-1.2,1.5-1.8,2.3-.6-.8-1.3-1.6-2-2.5h0ZM13.7,4.3v5.5h4.6v-5.5s-4.6,0-4.6,0ZM10.6,9.8v-5.5h-4.5v5.5h4.5ZM25.9,9.8v-5.5h-4.5v5.5h4.5ZM13.7,17.5h4.6v-4.5s-4.6,0-4.6,0v4.5ZM6.1,17.5h4.5v-4.4s-4.5,0-4.5,0v4.4ZM21.4,17.5c.8,0,4.5,0,4.5,0v-4.6c-1.5,0-3,0-4.5,0v4.5Z" />
</svg>
