<?xml version="1.0" encoding="UTF-8"?>
<svg xmlns="http://www.w3.org/2000/svg" version="1.1" viewBox="0 0 128 128">
	<rect fill="#fff" width="128" height="128" rx="24" ry="24" />
	<g fill="#000">
		<path class="cls-2"
			d="M62.06,66.41v-32.96c0-1,.81-1.81,1.81-1.81,1,0,1.81.81,1.81,1.81v32.96c.75.27,1.45.68,2.03,1.26l5.21,5.21V29.83c0-.48-.19-.94-.53-1.28l-7.24-7.24c-.71-.71-1.85-.71-2.56,0l-7.24,7.24c-.34.34-.53.8-.53,1.28v43.05s5.21-5.21,5.21-5.21c.58-.58,1.28-1,2.03-1.26h0Z" />
		<path class="cls-2"
			d="M78.36,73.32c-1,0-1.81.81-1.81,1.81v1.81h-4.68s-6.71-6.71-6.71-6.71c-.71-.71-1.85-.71-2.56,0l-6.71,6.71h-4.68v-1.81c0-1-.81-1.81-1.81-1.81-1,0-1.81.81-1.81,1.81v7.24c0,1,.81,1.81,1.81,1.81h28.97c1,0,1.81-.81,1.81-1.81v-7.24c0-1-.81-1.81-1.81-1.81ZM67.49,95.05v-7.24h-7.24v7.24c-2,0-3.62,1.63-3.62,3.62,0,.98.37,1.9,1.05,2.57l3.62,3.62c.68.68,1.59,1.05,2.57,1.05.98,0,1.9-.37,2.57-1.05l3.62-3.62c.68-.68,1.05-1.59,1.05-2.57,0-2-1.62-3.62-3.62-3.62h0Z" />
	</g>
</svg>
